<?xml version="1.0" standalone="no"?><!DOCTYPE svg PUBLIC "-//W3C//DTD SVG 1.1//EN" "http://www.w3.org/Graphics/SVG/1.1/DTD/svg11.dtd"><svg t="1585987615769" class="icon" viewBox="0 0 1024 1024" version="1.1" xmlns="http://www.w3.org/2000/svg" p-id="1024" xmlns:xlink="http://www.w3.org/1999/xlink" width="32" height="32"><defs><style type="text/css"></style></defs><path d="M228.54 1024c-73.224 0-132.719-59.495-132.719-132.72V132.72C95.821 59.495 155.316 0 228.541 0h445.068L930.18 256.572V891.28c0 73.225-59.495 132.72-132.72 132.72h-568.92z m0-948.058c-31.32 0-56.777 25.457-56.777 56.778v758.417c0 31.321 25.457 56.778 56.778 56.778h568.777c31.321 0 56.778-25.457 56.778-56.778V328.796H734.105c-73.225 0-132.72-59.495-132.72-132.72V75.942H228.541z m448.787 119.991c0 31.32 25.457 56.778 56.778 56.778h111.124L677.327 84.952v110.981zM323.361 771.146c-22.74 0-37.9-15.302-37.9-38.042 0-22.74 15.303-37.9 37.9-37.9h379.28c23.455 0 38.043 19.737 38.043 37.9 0 22.74-15.303 38.042-38.043 38.042h-379.28z m0-189.64c-22.74 0-37.9-15.303-37.9-38.042 0-22.74 15.303-38.043 37.9-38.043h379.28c23.455 0 38.043 19.737 38.043 38.043 0 22.74-15.303 38.042-38.043 38.042h-379.28z" p-id="1025"></path></svg>