<?xml version="1.0" standalone="no"?><!DOCTYPE svg PUBLIC "-//W3C//DTD SVG 1.1//EN" "http://www.w3.org/Graphics/SVG/1.1/DTD/svg11.dtd"><svg t="1585987609117" class="icon" viewBox="0 0 1024 1024" version="1.1" xmlns="http://www.w3.org/2000/svg" p-id="890" xmlns:xlink="http://www.w3.org/1999/xlink" width="32" height="32"><defs><style type="text/css"></style></defs><path d="M769.178849 888.588961 135.275451 888.588961l0-707.165981L549.733904 181.422979l48.795333-73.160253L110.911554 108.262726c-31.115672 0-48.797379 37.45096-48.797379 68.565609l0 728.537731c0 31.113625 25.233708 56.384172 56.31561 56.384172l672.15356 0c31.114648 0 56.313563-25.269523 56.313563-56.384172L846.896908 492.858034l-77.718059 54.295604L769.178849 888.588961zM988.866317 160.330592c-0.522909-30.837332-15.521508-60.491723-44.375673-88.12713C919.082974 47.806819 891.030058 35.450397 861.095281 35.450397c-46.844911 0-80.989569 30.27963-90.283236 39.538505-13.154601 13.016455-386.508891 385.847835-386.508891 385.847835-2.958378 2.993171-5.081739 6.613628-6.161327 10.720156-10.091846 37.380352-60.802808 203.296149-61.290925 204.931393-2.609431 8.492418-0.278339 17.786085 5.951549 23.980157 4.524037 4.490268 10.511401 6.927783 16.672728 6.927783 2.4017 0 4.837168-0.38374 7.237845-1.115404 1.705851-0.590448 172.946934-55.965639 201.13902-64.388473 3.690042-1.115404 7.099698-3.097548 9.848299-5.813403 17.787108-17.575284 360.963075-355.461781 388.736629-384.141984C975.118198 222.283596 989.387179 191.515848 988.866317 160.330592zM891.101689 205.785853C865.273441 217.897705 751.741711 348.520695 525.368984 571.586097c-25.964348 8.004301-89.589434 46.743604-136.575562 61.883419 15.139815-49.944506 55.340399-106.502639 63.414285-135.043672 48.380894-48.343031 353.584014-353.826538 365.731682-365.79922 2.366907-2.366907 22.168905-24.363897 48.759517-24.363897 15.107069 0 9.642614 10.197246 24.40176 24.363897 17.643845 16.949021 24.118304 9.188266 24.362874 24.362874C915.742902 172.652222 908.988058 187.270151 891.101689 205.785853z" p-id="891"></path></svg>